<svg width="26" height="26" viewBox="0 0 26 26" fill="none" xmlns="http://www.w3.org/2000/svg">
<path fill-rule="evenodd" clip-rule="evenodd" d="M3 0.5H23C24.375 0.5 25.5 1.625 25.5 3V18C25.5 19.375 24.375 20.5 23 20.5H5.5L0.5 25.5L0.5125 3C0.5125 1.625 1.625 0.5 3 0.5ZM6.75 15.5H19.25C19.9375 15.5 20.5 14.9375 20.5 14.25C20.5 13.5625 19.9375 13 19.25 13H6.75C6.0625 13 5.5 13.5625 5.5 14.25C5.5 14.9375 6.0625 15.5 6.75 15.5ZM19.25 11.75H6.75C6.0625 11.75 5.5 11.1875 5.5 10.5C5.5 9.8125 6.0625 9.25 6.75 9.25H19.25C19.9375 9.25 20.5 9.8125 20.5 10.5C20.5 11.1875 19.9375 11.75 19.25 11.75ZM6.75 8H19.25C19.9375 8 20.5 7.4375 20.5 6.75C20.5 6.0625 19.9375 5.5 19.25 5.5H6.75C6.0625 5.5 5.5 6.0625 5.5 6.75C5.5 7.4375 6.0625 8 6.75 8Z" fill="#F8F0D9"/>
</svg>
