<svg width="26" height="23" viewBox="0 0 26 23" fill="none" xmlns="http://www.w3.org/2000/svg">
<path d="M6.5 1C8.03142 1 9.37328 1.62481 10.3705 2.61976C11.3783 3.65776 12 5.00556 12 6.5H13H14C14 4.96858 14.6248 3.62672 15.6198 2.62946C16.6578 1.62168 18.0056 1 19.5 1C21.0314 1 22.3733 1.62483 23.3706 2.61979C24.3783 3.65779 25 5.00557 25 6.5C25 8.0339 24.3732 9.37763 23.3754 10.3754L13 20.7508L2.62965 10.3804C1.62175 9.3424 1 7.99454 1 6.5C1 4.96857 1.62482 3.62671 2.61978 2.62944C3.65778 1.62167 5.00557 1 6.5 1Z" stroke="#F8F0D9" stroke-width="2"/>
</svg>
