<svg width="29" height="23" viewBox="0 0 29 23" fill="none" xmlns="http://www.w3.org/2000/svg">
<path d="M26.3636 0.659091C24.9005 0.197727 23.2923 0 21.75 0C19.1795 0 16.4114 0.527273 14.5 1.97727C12.5886 0.527273 9.82046 0 7.25 0C4.67955 0 1.91136 0.527273 0 1.97727V21.2886C0 21.6182 0.329545 21.9477 0.659091 21.9477C0.790909 21.9477 0.856818 21.8818 0.988636 21.8818C2.76818 21.025 5.33864 20.4318 7.25 20.4318C9.82046 20.4318 12.5886 20.9591 14.5 22.4091C16.2795 21.2886 19.5091 20.4318 21.75 20.4318C23.925 20.4318 26.1659 20.8273 28.0114 21.8159C28.1432 21.8818 28.2091 21.8818 28.3409 21.8818C28.6705 21.8818 29 21.5523 29 21.2227V1.97727C28.2091 1.38409 27.3523 0.988636 26.3636 0.659091ZM26.3636 18.4545C24.9136 17.9932 23.3318 17.7955 21.75 17.7955C19.5091 17.7955 16.2795 18.6523 14.5 19.7727V4.61364C16.2795 3.49318 19.5091 2.63636 21.75 2.63636C23.3318 2.63636 24.9136 2.83409 26.3636 3.29545V18.4545Z" fill="#F8F0D9"/>
<path d="M21.7502 7.9091C22.9102 7.9091 24.0306 8.02773 25.0456 8.25182V6.24819C24.0043 6.05046 22.8838 5.93182 21.7502 5.93182C19.5093 5.93182 17.4793 6.3141 15.8184 7.02591V9.2141C17.3079 8.37046 19.3775 7.9091 21.7502 7.9091Z" fill="#F8F0D9"/>
<path d="M15.8184 10.5323V12.7204C17.3079 11.8768 19.3775 11.4154 21.7502 11.4154C22.9102 11.4154 24.0306 11.5341 25.0456 11.7582V9.75453C24.0043 9.55681 22.8838 9.43817 21.7502 9.43817C19.5093 9.43817 17.4793 9.83363 15.8184 10.5323Z" fill="#F8F0D9"/>
<path d="M21.7502 12.9577C19.5093 12.9577 17.4793 13.34 15.8184 14.0518V16.24C17.3079 15.3963 19.3775 14.935 21.7502 14.935C22.9102 14.935 24.0306 15.0536 25.0456 15.2777V13.2741C24.0043 13.0632 22.8838 12.9577 21.7502 12.9577Z" fill="#F8F0D9"/>
</svg>
