<svg width="53" height="53" viewBox="0 0 53 53" fill="none" xmlns="http://www.w3.org/2000/svg">
<path fill-rule="evenodd" clip-rule="evenodd" d="M26.5 0C11.872 0 0 11.872 0 26.5C0 41.128 11.872 53 26.5 53C41.128 53 53 41.128 53 26.5C53 11.872 41.128 0 26.5 0ZM26.4997 7.94993C30.8987 7.94993 34.4497 11.5009 34.4497 15.8999C34.4497 20.2989 30.8987 23.8499 26.4997 23.8499C22.1007 23.8499 18.5497 20.2989 18.5497 15.8999C18.5497 11.5009 22.1007 7.94993 26.4997 7.94993ZM10.5999 37.0471C14.0184 42.1881 19.8749 45.5801 26.4999 45.5801C33.1249 45.5801 38.9814 42.1881 42.3999 37.0471C42.3204 31.7736 31.7734 28.8851 26.4999 28.8851C21.1999 28.8851 10.6794 31.7736 10.5999 37.0471Z" fill="#F8F0D9"/>
</svg>


