<svg width="94" height="62" viewBox="0 0 94 62" fill="none" xmlns="http://www.w3.org/2000/svg">
<path d="M6.072 59.8H0.744V59.2C1.288 58.944 1.816 58.752 2.328 58.624V44.392L0.744 44.2V43.576C1.256 43.352 1.776 43.176 2.304 43.048C2.848 42.904 3.376 42.792 3.888 42.712H4.488V45.4H4.512C4.832 44.584 5.28 43.936 5.856 43.456C6.432 42.96 7.184 42.712 8.112 42.712C9.536 42.712 10.64 43.184 11.424 44.128C12.208 45.072 12.6 46.608 12.6 48.736C12.6 49.744 12.464 50.656 12.192 51.472C11.936 52.288 11.56 52.976 11.064 53.536C10.584 54.096 9.992 54.528 9.288 54.832C8.6 55.136 7.832 55.288 6.984 55.288C6.392 55.288 5.928 55.248 5.592 55.168C5.256 55.104 4.888 54.984 4.488 54.808V58.624C4.744 58.656 5 58.712 5.256 58.792C5.512 58.888 5.784 59.024 6.072 59.2V59.8ZM7.344 44.2C6.56 44.2 5.936 44.448 5.472 44.944C5.008 45.44 4.68 46.12 4.488 46.984V53.704C4.776 53.88 5.096 54.016 5.448 54.112C5.816 54.192 6.288 54.232 6.864 54.232C7.392 54.232 7.864 54.096 8.28 53.824C8.712 53.552 9.072 53.168 9.36 52.672C9.664 52.176 9.896 51.6 10.056 50.944C10.216 50.272 10.296 49.536 10.296 48.736C10.296 48.08 10.24 47.48 10.128 46.936C10.032 46.376 9.864 45.896 9.624 45.496C9.4 45.08 9.096 44.76 8.712 44.536C8.344 44.312 7.888 44.2 7.344 44.2ZM14.5778 49C14.5778 47.992 14.7058 47.104 14.9618 46.336C15.2338 45.552 15.6178 44.896 16.1138 44.368C16.6098 43.824 17.2018 43.416 17.8898 43.144C18.5938 42.856 19.3698 42.712 20.2178 42.712C21.2098 42.712 22.0658 42.864 22.7858 43.168C23.5058 43.472 24.0898 43.904 24.5378 44.464C25.0018 45.008 25.3378 45.664 25.5458 46.432C25.7698 47.2 25.8818 48.056 25.8818 49C25.8818 51.016 25.3698 52.568 24.3458 53.656C23.3218 54.744 21.9458 55.288 20.2178 55.288C19.2578 55.288 18.4258 55.144 17.7218 54.856C17.0178 54.552 16.4338 54.128 15.9698 53.584C15.5058 53.024 15.1538 52.36 14.9138 51.592C14.6898 50.808 14.5778 49.944 14.5778 49ZM16.8818 49C16.8818 49.72 16.9458 50.4 17.0738 51.04C17.2178 51.68 17.4338 52.24 17.7218 52.72C18.0258 53.184 18.4178 53.552 18.8978 53.824C19.3778 54.096 19.9538 54.232 20.6258 54.232C21.4898 54.232 22.1938 53.808 22.7378 52.96C23.2978 52.112 23.5778 50.792 23.5778 49C23.5778 48.264 23.5058 47.584 23.3618 46.96C23.2338 46.32 23.0258 45.768 22.7378 45.304C22.4498 44.824 22.0818 44.448 21.6338 44.176C21.1858 43.904 20.6498 43.768 20.0258 43.768C19.0818 43.768 18.3218 44.192 17.7458 45.04C17.1698 45.888 16.8818 47.208 16.8818 49ZM37.5634 53.32C37.4354 53.592 37.2354 53.848 36.9634 54.088C36.6914 54.328 36.3794 54.536 36.0274 54.712C35.6754 54.888 35.2914 55.024 34.8754 55.12C34.4594 55.232 34.0354 55.288 33.6034 55.288C32.6594 55.288 31.8274 55.144 31.1074 54.856C30.3874 54.552 29.7874 54.128 29.3074 53.584C28.8274 53.024 28.4594 52.36 28.2034 51.592C27.9634 50.824 27.8434 49.96 27.8434 49C27.8434 46.952 28.3154 45.392 29.2594 44.32C30.2034 43.248 31.5394 42.712 33.2674 42.712C33.8274 42.712 34.3794 42.792 34.9234 42.952C35.4674 43.096 35.9474 43.344 36.3634 43.696C36.7954 44.048 37.1394 44.52 37.3954 45.112C37.6674 45.688 37.8034 46.408 37.8034 47.272C37.8034 47.544 37.7874 47.824 37.7554 48.112C37.7394 48.384 37.6994 48.68 37.6354 49H30.1474C30.1474 49.672 30.2274 50.304 30.3874 50.896C30.5634 51.472 30.8194 51.976 31.1554 52.408C31.4914 52.84 31.9154 53.184 32.4274 53.44C32.9394 53.68 33.5394 53.8 34.2274 53.8C34.7874 53.8 35.3554 53.72 35.9314 53.56C36.5074 53.4 36.9394 53.192 37.2274 52.936L37.5634 53.32ZM33.1714 43.768C32.2594 43.768 31.5634 44.08 31.0834 44.704C30.6034 45.312 30.3154 46.392 30.2194 47.944H35.4994C35.5154 47.8 35.5234 47.664 35.5234 47.536C35.5394 47.392 35.5474 47.256 35.5474 47.128C35.5474 46.104 35.3554 45.288 34.9714 44.68C34.5874 44.072 33.9874 43.768 33.1714 43.768ZM39.2897 43.576C39.8977 43.192 40.5377 42.92 41.2097 42.76V40.72C41.4177 40.56 41.6577 40.408 41.9297 40.264C42.2177 40.104 42.4977 39.968 42.7697 39.856H43.3697V43H46.9697V44.2H43.3697V51.16C43.3697 52.12 43.5217 52.8 43.8257 53.2C44.1297 53.6 44.5857 53.8 45.1937 53.8C45.4817 53.8 45.8417 53.784 46.2737 53.752C46.7057 53.704 47.0737 53.624 47.3777 53.512L47.5457 53.872C47.4177 54.016 47.2337 54.168 46.9937 54.328C46.7697 54.488 46.5057 54.64 46.2017 54.784C45.9137 54.928 45.5937 55.048 45.2417 55.144C44.8897 55.24 44.5297 55.288 44.1617 55.288C43.2017 55.288 42.4657 55.016 41.9537 54.472C41.4577 53.928 41.2097 53.048 41.2097 51.832V44.2H39.2897V43.576ZM53.5479 55.288L48.8679 44.2C48.4039 44.04 47.9799 43.848 47.5959 43.624V43H52.6119V43.6C52.4039 43.712 52.1879 43.824 51.9639 43.936C51.7559 44.032 51.5159 44.12 51.2439 44.2L54.0279 51.424L54.5079 52.912H54.5559L54.9159 51.4L57.4839 44.2C57.2279 44.136 56.9879 44.056 56.7639 43.96C56.5559 43.864 56.3559 43.752 56.1639 43.624V43H60.2439V43.624C60.0839 43.736 59.8839 43.84 59.6439 43.936C59.4199 44.032 59.1639 44.12 58.8759 44.2L54.6279 55L53.5479 55.288ZM66.312 55H60.984V54.4C61.224 54.272 61.472 54.168 61.728 54.088C61.984 53.992 62.264 53.904 62.568 53.824V44.392L60.984 44.2V43.576C61.448 43.384 61.952 43.216 62.496 43.072C63.04 42.928 63.584 42.808 64.128 42.712H64.728V53.824C65.048 53.904 65.336 53.992 65.592 54.088C65.848 54.168 66.088 54.272 66.312 54.4V55ZM62.112 38.92C62.112 38.488 62.248 38.144 62.52 37.888C62.808 37.632 63.184 37.504 63.648 37.504C64.112 37.504 64.48 37.632 64.752 37.888C65.024 38.144 65.16 38.488 65.16 38.92C65.16 39.352 65.024 39.696 64.752 39.952C64.48 40.192 64.112 40.312 63.648 40.312C63.184 40.312 62.808 40.192 62.52 39.952C62.248 39.696 62.112 39.352 62.112 38.92ZM81.0668 55H75.9068V54.4C76.3388 54.176 76.8108 53.984 77.3228 53.824V48.136C77.3228 46.92 77.1468 45.96 76.7948 45.256C76.4428 44.552 75.8028 44.2 74.8748 44.2C74.4748 44.2 74.0988 44.272 73.7468 44.416C73.4108 44.56 73.1068 44.76 72.8348 45.016C72.5788 45.256 72.3548 45.536 72.1628 45.856C71.9708 46.16 71.8188 46.48 71.7068 46.816V53.824C72.2028 53.92 72.6828 54.112 73.1468 54.4V55H67.9628V54.4C68.3628 54.192 68.8908 54 69.5468 53.824V44.392L67.9628 44.2V43.576C68.3788 43.4 68.8588 43.24 69.4028 43.096C69.9468 42.952 70.5148 42.824 71.1068 42.712H71.7068V45.4H71.7308C72.0668 44.664 72.5468 44.032 73.1708 43.504C73.8108 42.976 74.5788 42.712 75.4748 42.712C76.1148 42.712 76.6828 42.792 77.1788 42.952C77.6908 43.096 78.1148 43.36 78.4508 43.744C78.7868 44.128 79.0428 44.648 79.2188 45.304C79.3948 45.944 79.4828 46.76 79.4828 47.752V53.824C80.1228 53.936 80.6508 54.128 81.0668 54.4V55ZM92.1728 53.32C92.0448 53.592 91.8448 53.848 91.5728 54.088C91.3008 54.328 90.9888 54.536 90.6368 54.712C90.2848 54.888 89.9008 55.024 89.4848 55.12C89.0688 55.232 88.6448 55.288 88.2128 55.288C87.2688 55.288 86.4368 55.144 85.7168 54.856C84.9967 54.552 84.3968 54.128 83.9168 53.584C83.4368 53.024 83.0688 52.36 82.8128 51.592C82.5728 50.824 82.4528 49.96 82.4528 49C82.4528 46.952 82.9248 45.392 83.8688 44.32C84.8128 43.248 86.1488 42.712 87.8768 42.712C88.4368 42.712 88.9888 42.792 89.5328 42.952C90.0768 43.096 90.5568 43.344 90.9728 43.696C91.4048 44.048 91.7488 44.52 92.0048 45.112C92.2768 45.688 92.4128 46.408 92.4128 47.272C92.4128 47.544 92.3968 47.824 92.3648 48.112C92.3488 48.384 92.3088 48.68 92.2448 49H84.7568C84.7568 49.672 84.8368 50.304 84.9967 50.896C85.1728 51.472 85.4288 51.976 85.7648 52.408C86.1008 52.84 86.5248 53.184 87.0368 53.44C87.5488 53.68 88.1488 53.8 88.8368 53.8C89.3968 53.8 89.9648 53.72 90.5408 53.56C91.1168 53.4 91.5488 53.192 91.8368 52.936L92.1728 53.32ZM87.7808 43.768C86.8688 43.768 86.1728 44.08 85.6928 44.704C85.2128 45.312 84.9248 46.392 84.8288 47.944H90.1088C90.1248 47.8 90.1328 47.664 90.1328 47.536C90.1488 47.392 90.1568 47.256 90.1568 47.128C90.1568 46.104 89.9648 45.288 89.5808 44.68C89.1968 44.072 88.5968 43.768 87.7808 43.768Z" fill="#F8F0D9"/>
<path d="M64.4706 0.911765C62.4465 0.273529 60.2218 0 58.0882 0C54.5324 0 50.7029 0.729412 48.0588 2.73529C45.4147 0.729412 41.5853 0 38.0294 0C34.4735 0 30.6441 0.729412 28 2.73529V29.45C28 29.9059 28.4559 30.3618 28.9118 30.3618C29.0941 30.3618 29.1853 30.2706 29.3676 30.2706C31.8294 29.0853 35.3853 28.2647 38.0294 28.2647C41.5853 28.2647 45.4147 28.9941 48.0588 31C50.5206 29.45 54.9882 28.2647 58.0882 28.2647C61.0971 28.2647 64.1971 28.8118 66.75 30.1794C66.9324 30.2706 67.0235 30.2706 67.2059 30.2706C67.6618 30.2706 68.1176 29.8147 68.1176 29.3588V2.73529C67.0235 1.91471 65.8382 1.36765 64.4706 0.911765ZM64.4706 25.5294C62.4647 24.8912 60.2765 24.6176 58.0882 24.6176C54.9882 24.6176 50.5206 25.8029 48.0588 27.3529V6.38235C50.5206 4.83235 54.9882 3.64706 58.0882 3.64706C60.2765 3.64706 62.4647 3.92059 64.4706 4.55882V25.5294Z" fill="#F8F0D9"/>
<path d="M58.0882 10.9412C59.6929 10.9412 61.2429 11.1053 62.647 11.4153V8.64352C61.2064 8.36999 59.6564 8.20587 58.0882 8.20587C54.9882 8.20587 52.18 8.73469 49.8823 9.7194V12.7465C51.9429 11.5794 54.8059 10.9412 58.0882 10.9412Z" fill="#F8F0D9"/>
<path d="M49.8823 14.57V17.597C51.9429 16.43 54.8059 15.7918 58.0882 15.7918C59.6929 15.7918 61.2429 15.9559 62.647 16.2659V13.4941C61.2064 13.2206 59.6564 13.0565 58.0882 13.0565C54.9882 13.0565 52.18 13.6035 49.8823 14.57Z" fill="#F8F0D9"/>
<path d="M58.0882 17.9253C54.9882 17.9253 52.18 18.4541 49.8823 19.4388V22.4659C51.9429 21.2988 54.8059 20.6606 58.0882 20.6606C59.6929 20.6606 61.2429 20.8247 62.647 21.1347V18.3629C61.2064 18.0712 59.6564 17.9253 58.0882 17.9253Z" fill="#F8F0D9"/>
</svg>
